HIERARCHY
ROOT Hips
{
	OFFSET 0.000000 0.000000 0.000000
	CHANNELS 6 Xposition Yposition Zposition Zrotation Yrotation Xrotation 
	JOINT LowerBack
	{
		OFFSET 0.000000 0.000000 0.000000
		CHANNELS 3 Zrotation Yrotation Xrotation
		JOINT Spine
		{
			OFFSET 0.028270 2.035590 -0.193380
			CHANNELS 3 Zrotation Yrotation Xrotation
			JOINT Spine1
			{
				OFFSET 0.056720 2.048850 -0.042750
				CHANNELS 3 Zrotation Yrotation Xrotation
				JOINT Neck
				{
					OFFSET 0.000000 0.000000 0.000000
					CHANNELS 3 Zrotation Yrotation Xrotation
					JOINT Neck1
					{
						OFFSET -0.054170 1.746240 0.172020
						CHANNELS 3 Zrotation Yrotation Xrotation
						JOINT Head
						{
							OFFSET 0.104070 1.761360 -0.123970
							CHANNELS 3 Zrotation Yrotation Xrotation
							End Site
							{
								OFFSET 0.000000 0.000000 0.000000
							}
						}
					}
				}
				JOINT LeftShoulder
				{
					OFFSET 0.000000 0.000000 0.000000
					CHANNELS 3 Zrotation Yrotation Xrotation
					JOINT LeftArm
					{
						OFFSET 3.362410 1.200890 -0.311210
						CHANNELS 3 Zrotation Yrotation Xrotation
						JOINT LeftForeArm
						{
							OFFSET 4.983000 -0.000000 -0.000000
							CHANNELS 3 Zrotation Yrotation Xrotation
							JOINT LeftHand
							{
								OFFSET 3.483560 -0.000000 -0.000000
								CHANNELS 3 Zrotation Yrotation Xrotation
								JOINT LeftFingerBase
								{
									OFFSET 0.000000 0.000000 0.000000
									CHANNELS 3 Zrotation Yrotation Xrotation
									JOINT LeftHandIndex1
									{
										OFFSET 0.715260 -0.000000 -0.000000
										CHANNELS 3 Zrotation Yrotation Xrotation
										End Site
										{
											OFFSET 0.000000 0.000000 0.000000
										}
									}
								}
								JOINT LThumb
								{
									OFFSET 0.000000 0.000000 0.000000
									CHANNELS 3 Zrotation Yrotation Xrotation
									End Site
									{
										OFFSET 0.000000 0.000000 0.000000
									}
								}
							}
						}
					}
				}
				JOINT RightShoulder
				{
					OFFSET 0.000000 0.000000 0.000000
					CHANNELS 3 Zrotation Yrotation Xrotation
					JOINT RightArm
					{
						OFFSET -3.136600 1.374050 -0.404650
						CHANNELS 3 Zrotation Yrotation Xrotation
						JOINT RightForeArm
						{
							OFFSET -5.241900 -0.000000 -0.000000
							CHANNELS 3 Zrotation Yrotation Xrotation
							JOINT RightHand
							{
								OFFSET -3.444170 -0.000000 -0.000000
								CHANNELS 3 Zrotation Yrotation Xrotation
								JOINT RightFingerBase
								{
									OFFSET 0.000000 0.000000 0.000000
									CHANNELS 3 Zrotation Yrotation Xrotation
									JOINT RightHandIndex1
									{
										OFFSET -0.622530 -0.000000 -0.000000
										CHANNELS 3 Zrotation Yrotation Xrotation
										End Site
										{
											OFFSET 0.000000 0.000000 0.000000
										}
									}
								}
								JOINT RThumb
								{
									OFFSET 0.000000 0.000000 0.000000
									CHANNELS 3 Zrotation Yrotation Xrotation
									End Site
									{
										OFFSET 0.000000 0.000000 0.000000
									}
								}
							}
						}
					}
				}
			}
		}
	}
}
}
MOTION
Frames: 15
Frame Time: 0.008333
-12.285284 17.200710 -0.784981 -11.985162 89.353310 22.076023 4.990336 -4.055118 6.947857 0.760768 -4.289542 -1.597616 -4.427210 -4.249601 -0.415901 6.015315 -17.111206 -7.577675 -1.873577 -0.123360 -0.320713 0.000000 0.000000 0.000000 13.178006 5.006470 -0.759939 -58.661208 -9.082875 6.291991 -178.614584 -63.758816 179.958387 4.576199 0.481853 -0.000945 -0.164380 0.550663 0.000000 0.000000 0.000000 0.000000 0.000000 0.000000 0.000000 2.041934 -13.643645 0.495026 68.783162 -32.165160 17.245823 179.935412 81.926006 179.963118 -8.092601 14.405911 -1.068388 0.091160 -0.458773 -0.000000 0.000000 0.000000 0.000000 0.000000 0.000000 0.000000 
-12.075837 17.190922 -0.766128 -18.574638 89.486383 15.338132 5.367771 -4.091345 7.005783 0.840947 -4.334297 -1.578083 -4.437099 -4.292954 -0.362018 6.004091 -17.371139 -7.649799 -1.871480 -0.122365 -0.339219 0.000000 0.000000 0.000000 13.578208 4.971765 -0.812537 -58.967250 -8.336654 6.844156 -178.644151 -63.444085 179.961717 4.246582 0.477830 -0.000947 -0.148597 0.547538 0.000000 0.000000 0.000000 0.000000 0.000000 0.000000 0.000000 2.003808 -13.880976 0.496823 69.280770 -32.082236 16.641129 179.929612 81.687794 179.962926 -8.074714 14.459502 -1.070186 0.091404 -0.462391 -0.000000 0.000000 0.000000 0.000000 0.000000 0.000000 0.000000 
-11.866614 17.169198 -0.746145 -25.146274 89.704647 8.592913 5.717721 -4.156604 7.058714 0.918999 -4.400761 -1.556438 -4.449429 -4.356547 -0.300324 5.999901 -17.625591 -7.717353 -1.872724 -0.121693 -0.356137 0.000000 0.000000 0.000000 13.962940 4.941426 -0.863161 -59.312425 -7.578684 7.439277 -178.673649 -63.182565 179.965366 3.883187 0.473932 -0.000755 -0.131594 0.543839 0.000000 0.000000 0.000000 0.000000 0.000000 0.000000 0.000000 1.988248 -14.129775 0.489726 69.777194 -31.904440 16.078786 179.925580 81.477433 179.962519 -8.117667 14.503270 -1.079480 0.092679 -0.465963 -0.000000 0.000000 0.000000 0.000000 0.000000 0.000000 0.000000 
-11.657761 17.135422 -0.725349 -31.465872 89.998918 2.082259 6.014663 -4.245449 7.100913 0.989277 -4.485125 -1.534775 -4.463324 -4.436776 -0.232916 6.003201 -17.873553 -7.781820 -1.877161 -0.121314 -0.371801 0.000000 0.000000 0.000000 14.328682 4.911423 -0.911754 -59.690599 -6.804844 8.071588 -178.703607 -62.975247 179.969123 3.506522 0.464478 -0.000866 -0.114059 0.539784 0.000000 0.000000 0.000000 0.000000 0.000000 0.000000 0.000000 1.995263 -14.385717 0.474995 70.270631 -31.642231 15.552757 179.922885 81.278634 179.961926 -8.206593 14.533800 -1.093969 0.094763 -0.469599 -0.000000 0.000000 0.000000 0.000000 0.000000 0.000000 0.000000 
-11.449507 17.089698 -0.704085 142.769851 89.658726 176.118799 6.245648 -4.344864 7.129787 1.047106 -4.577169 -1.514740 -4.479754 -4.523754 -0.162798 6.014766 -18.110701 -7.845322 -1.885027 -0.121213 -0.386797 0.000000 0.000000 0.000000 14.667772 4.882695 -0.957123 -60.090781 -6.013169 8.733568 -178.734679 -62.820477 179.972740 3.141702 0.446725 -0.001076 -0.096878 0.535530 0.000000 0.000000 0.000000 0.000000 0.000000 0.000000 0.000000 2.025881 -14.637781 0.454696 70.760749 -31.303872 15.055009 179.920914 81.077898 179.961176 -8.325707 14.549346 -1.111554 0.097442 -0.473438 -0.000000 0.000000 0.000000 0.000000 0.000000 0.000000 0.000000 
-11.242155 17.032611 -0.682884 137.841337 89.301921 170.986011 6.419932 -4.441487 7.152349 1.091628 -4.666065 -1.497177 -4.501573 -4.607094 -0.097879 6.034252 -18.328479 -7.907089 -1.897793 -0.121517 -0.401027 0.000000 0.000000 0.000000 14.968215 4.837015 -0.996803 -60.498664 -5.178975 9.401495 -178.768047 -62.698946 179.975954 2.815895 0.419787 -0.001478 -0.080882 0.531193 0.000000 0.000000 0.000000 0.000000 0.000000 0.000000 0.000000 2.080309 -14.868542 0.433740 71.249752 -30.897774 14.572919 179.918999 80.866030 179.960341 -8.461187 14.554790 -1.130634 0.100546 -0.477691 -0.000000 0.000000 0.000000 0.000000 0.000000 0.000000 0.000000 
-11.036035 16.964554 -0.662144 133.821750 88.958628 166.770223 6.559570 -4.522179 7.167098 1.124987 -4.739976 -1.482177 -4.533583 -4.675051 -0.038286 6.070754 -18.530857 -7.973702 -1.916675 -0.122221 -0.416458 0.000000 0.000000 0.000000 15.225949 4.790762 -1.029344 -60.909267 -4.330769 10.081512 -178.803617 -62.624503 179.978581 2.549305 0.389526 -0.001866 -0.066969 0.526731 0.000000 0.000000 0.000000 0.000000 0.000000 0.000000 0.000000 2.175493 -15.076333 0.412817 71.727872 -30.425226 14.095482 179.916231 80.627125 179.959441 -8.597883 14.536348 -1.148209 0.103932 -0.482337 -0.000000 0.000000 0.000000 0.000000 0.000000 0.000000 0.000000 
-10.831695 16.886801 -0.642345 130.739062 88.641773 163.486334 6.690559 -4.586841 7.196097 1.150728 -4.798895 -1.468329 -4.580294 -4.727850 0.003355 6.127125 -18.697186 -8.040645 -1.945388 -0.123669 -0.432195 0.000000 0.000000 0.000000 15.426720 4.712068 -1.049405 -61.306326 -3.432929 10.739265 -178.841602 -62.568645 179.980452 2.362328 0.357340 -0.002336 -0.055743 0.522244 0.000000 0.000000 0.000000 0.000000 0.000000 0.000000 0.000000 2.319775 -15.236160 0.397232 72.196658 -29.891178 13.606192 179.912251 80.361017 179.958496 -8.727363 14.506478 -1.163881 0.107433 -0.487610 -0.000000 0.000000 0.000000 0.000000 0.000000 0.000000 0.000000 
-10.629658 16.800559 -0.623909 128.516784 88.357188 161.050819 6.832598 -4.636626 7.255800 1.171525 -4.843414 -1.453876 -4.646343 -4.766065 0.019425 6.211548 -18.814921 -8.106772 -1.987604 -0.126150 -0.448307 0.000000 0.000000 0.000000 15.563560 4.587479 -1.053068 -61.682869 -2.479437 11.357576 -178.881349 -62.519788 179.981501 2.263930 0.324824 -0.002787 -0.047537 0.517828 0.000000 0.000000 0.000000 0.000000 0.000000 0.000000 0.000000 2.531887 -15.334345 0.389556 72.648191 -29.293070 13.093327 179.906631 80.067212 179.957523 -8.843517 14.466710 -1.176950 0.110962 -0.493579 -0.000000 0.000000 0.000000 0.000000 0.000000 0.000000 0.000000 
-10.430422 16.706877 -0.606918 126.970219 88.107450 159.283114 6.993834 -4.670565 7.351771 1.187843 -4.871743 -1.437172 -4.736859 -4.787613 0.009651 6.339557 -18.883035 -8.175264 -2.046621 -0.129856 -0.466012 0.000000 0.000000 0.000000 15.643024 4.429267 -1.039044 -62.042126 -1.500580 11.943910 -178.921704 -62.491219 179.981766 2.253444 0.303986 -0.003114 -0.042520 0.513190 0.000000 0.000000 0.000000 0.000000 0.000000 0.000000 0.000000 2.843869 -15.371559 0.388380 73.064963 -28.620112 12.550325 179.898873 79.741015 179.956524 -8.949484 14.399832 -1.186513 0.114685 -0.500055 -0.000000 0.000000 0.000000 0.000000 0.000000 0.000000 0.000000 
-10.234634 16.607711 -0.591719 126.074217 87.898191 158.144430 7.184754 -4.695182 7.506205 1.201077 -4.889425 -1.416474 -4.854772 -4.798129 -0.037181 6.515297 -18.871682 -8.237118 -2.126677 -0.135215 -0.483351 0.000000 0.000000 0.000000 15.655847 4.214497 -1.001384 -62.380813 -0.466781 12.468499 -178.961615 -62.464544 179.981347 2.321698 0.285959 -0.003522 -0.040264 0.508663 0.000000 0.000000 0.000000 0.000000 0.000000 0.000000 0.000000 3.267940 -15.319320 0.396125 73.440515 -27.860771 11.974330 179.889009 79.401535 179.955481 -9.050216 14.322620 -1.194575 0.118641 -0.507169 -0.000000 0.000000 0.000000 0.000000 0.000000 0.000000 0.000000 
-10.042741 16.504773 -0.578500 125.778172 87.742987 157.590203 7.412397 -4.710115 7.723274 1.212096 -4.895233 -1.391275 -5.002791 -4.796372 -0.123039 6.747281 -18.767202 -8.287975 -2.230678 -0.142480 -0.499538 0.000000 0.000000 0.000000 15.604940 3.951618 -0.937558 -62.710088 0.610009 12.931568 -178.999717 -62.452840 179.980434 2.449195 0.270519 -0.004014 -0.040164 0.504223 0.000000 0.000000 0.000000 0.000000 0.000000 0.000000 0.000000 3.824303 -15.166703 0.411103 73.758257 -26.995610 11.370210 179.876916 79.062813 179.954369 -9.158415 14.229172 -1.202233 0.123128 -0.514731 -0.000000 0.000000 0.000000 0.000000 0.000000 0.000000 0.000000 
-9.855124 16.399958 -0.567461 126.113671 87.663135 157.659228 7.685286 -4.714697 8.004033 1.222640 -4.887728 -1.361893 -5.181406 -4.781139 -0.249667 7.038513 -18.549621 -8.319677 -2.360395 -0.151856 -0.512693 0.000000 0.000000 0.000000 15.491378 3.652220 -0.844748 -63.044849 1.722070 13.332821 -179.034762 -62.473159 179.979260 2.610292 0.252752 -0.004593 -0.041362 0.499957 0.000000 0.000000 0.000000 0.000000 0.000000 0.000000 0.000000 4.522226 -14.896810 0.430930 74.003253 -26.004144 10.747928 179.862751 78.745905 179.953146 -9.288888 14.118503 -1.211186 0.128437 -0.522535 -0.000000 0.000000 0.000000 0.000000 0.000000 0.000000 0.000000 
-9.671994 16.295234 -0.558784 127.162269 87.682757 158.440763 8.009545 -4.706504 8.347692 1.234438 -4.863702 -1.328645 -5.388398 -4.749641 -0.417064 7.386450 -18.202711 -8.321645 -2.515554 -0.163393 -0.520211 0.000000 0.000000 0.000000 15.315944 3.328388 -0.721679 -63.404186 2.863833 13.674058 -179.066415 -62.550476 179.978081 2.775373 0.224360 -0.005567 -0.042774 0.495966 0.000000 0.000000 0.000000 0.000000 0.000000 0.000000 0.000000 5.359396 -14.496852 0.453151 74.161937 -24.865064 10.125721 179.847001 78.477915 179.951759 -9.458234 13.991980 -1.223737 0.134857 -0.530327 -0.000000 0.000000 0.000000 0.000000 0.000000 0.000000 0.000000 
-9.493326 16.192427 -0.552538 129.063828 87.827152 160.083672 8.384390 -4.681707 8.748633 1.248214 -4.818846 -1.292314 -5.619065 -4.698167 -0.622981 7.784980 -17.709896 -8.281865 -2.693968 -0.176984 -0.518899 0.000000 0.000000 0.000000 15.081542 2.999154 -0.568449 -63.809158 4.026505 13.962175 -179.095210 -62.720029 179.977127 2.916774 0.179615 -0.006944 -0.043363 0.492222 -0.000000 0.000000 0.000000 0.000000 0.000000 0.000000 0.000000 6.325177 -13.953803 0.474081 74.224099 -23.564488 9.523604 179.830481 78.283561 179.950147 -9.679873 13.849029 -1.241287 0.142564 -0.537793 -0.000000 0.000000 0.000000 0.000000 0.000000 0.000000 0.000000 
